<?xml version="1.0" standalone="no"?>
<!DOCTYPE svg PUBLIC "-//W3C//DTD SVG 20010904//EN"
 "http://www.w3.org/TR/2001/REC-SVG-20010904/DTD/svg10.dtd">
<svg version="1.0" xmlns="http://www.w3.org/2000/svg"
 width="172.000000pt" height="172.000000pt" viewBox="0 0 172.000000 172.000000"
 preserveAspectRatio="xMidYMid meet">
<metadata>
Created by potrace 1.14, written by Peter Selinger 2001-2017
</metadata>
<g transform="translate(0.000000,172.000000) scale(0.100000,-0.100000)"
fill="#000000" stroke="none">
<path d="M1354 979 c-73 -21 -102 -103 -62 -177 l23 -44 -42 -43 c-46 -49 -58
-87 -51 -164 l5 -49 -41 -5 c-29 -4 -49 -15 -68 -37 -28 -30 -28 -33 -28 -161
0 -130 0 -131 28 -159 51 -50 174 -49 222 2 27 29 33 68 28 187 -2 76 0 101
10 101 9 0 12 -45 12 -190 l0 -190 60 0 60 0 0 39 0 40 28 -15 c33 -17 53 -18
86 -3 40 18 47 52 44 209 l-3 145 -31 20 c-18 11 -39 31 -47 44 -14 23 -13 27
9 60 22 34 43 104 44 144 0 14 -9 17 -55 17 -54 0 -54 0 -61 -35 -9 -48 -18
-50 -37 -11 -15 32 -15 35 5 53 25 22 57 90 58 121 1 80 -96 130 -196 101z
m84 -106 c2 -11 -4 -25 -12 -32 -13 -11 -17 -9 -28 14 -10 22 -9 28 3 36 20
12 33 6 37 -18z m-8 -321 c0 -15 -41 -22 -61 -11 -27 14 -33 52 -14 89 l17 33
29 -51 c16 -28 29 -55 29 -60z m-182 -242 c2 -104 -5 -139 -27 -126 -7 5 -11
49 -11 122 0 105 2 115 18 112 15 -3 17 -17 20 -108z m302 -10 c0 -87 -3 -110
-14 -110 -19 0 -26 32 -26 117 0 80 6 103 26 103 11 0 14 -23 14 -110z"/>
<path d="M553 493 c-12 -2 -33 -16 -47 -30 -25 -25 -26 -29 -26 -158 0 -118 2
-135 21 -158 38 -49 144 -59 210 -20 32 19 49 58 49 114 l0 39 -59 0 -60 0 -3
-47 c-2 -36 -7 -49 -20 -51 -16 -3 -18 8 -18 118 0 110 2 121 18 118 12 -2 18
-14 20 -41 l3 -38 57 3 c53 3 57 5 60 29 5 44 -22 94 -61 112 -33 16 -93 20
-144 10z"/>
<path d="M844 486 c-57 -25 -64 -46 -64 -189 l0 -129 30 -28 c64 -60 200 -47
236 22 18 35 19 242 1 278 -26 53 -132 77 -203 46z m91 -186 c0 -96 -3 -115
-15 -115 -12 0 -16 21 -18 118 -2 109 -1 118 15 115 16 -3 18 -16 18 -118z"/>
</g>
</svg>
